<svg version="1.1" xmlns="http://www.w3.org/2000/svg" xmlns:xlink="http://www.w3.org/1999/xlink" width="1316.894" height="448" viewBox="0 0 1316.894 448">
  <g fill="none" fill-rule="none" stroke="none" stroke-width="1" stroke-linecap="butt" stroke-linejoin="miter" stroke-miterlimit="10" stroke-dasharray="" stroke-dashoffset="0" font-family="none" font-weight="none" font-size="none" text-anchor="none" style="mix-blend-mode: normal">
    <rect x="0" y="0" width="1316.894" height="448" fill="none" fill-rule="nonzero"/>
    <g>
      <path d="M208.072,298.836l-0.005,-0.002c-9.51046,4.4002 -19.9236,6.49852 -30.396,6.125c-7.78905,-0.26654 -15.47189,-1.88987 -22.703,-4.797l-22.054,-66.018l15.28,-29.593h56.347c0,0 3.533,94.286 3.531,94.285z" fill="#ff9100" fill-rule="evenodd"/>
      <path d="M178.438,280.218c-19.528,-18.059 -31.377,-44.2 -30.374,-72.873c0.033,-0.929 0.083,-1.862 0.139,-2.791c-3.56674,-0.92478 -7.22368,-1.45793 -10.906,-1.59c-5.23287,-0.18493 -10.46275,0.44321 -15.503,1.862c-5.37986,9.41326 -8.38391,19.99609 -8.752,30.832c-1.012,28.964 16.515,54.269 41.926,64.504c9.70246,-4.05293 17.90448,-11.02273 23.47,-19.944z" fill="#ffc400" fill-rule="nonzero"/>
      <path d="M183.54,136.69c-12.791,10.25 -22.897,23.761 -29.006,39.33c-3.58028,9.125 -5.71919,18.75144 -6.34,28.534c22.462,5.795 38.691,26.561 37.846,50.706c-0.30069,8.84572 -2.92759,17.45593 -7.616,24.963c8.63785,7.99582 18.69285,14.30834 29.648,18.613c22.218,-10.268 37.98,-32.365 38.891,-58.502c0.591,-16.936 -5.915,-32.028 -15.106,-44.768c-9.709,-13.47 -48.317,-58.876 -48.317,-58.876z" fill="#dd2c00" fill-rule="nonzero"/>
    </g>
    <circle cx="246" cy="265" r="40" filter="url(#dropshadow)" fill="#ffffff" fill-rule="nonzero"/>
    <g fill="#5f6368" fill-rule="evenodd">
      <path d="M228.22222,277.6666c-0.7037,-0.4074 -1.25,-0.9444 -1.63888,-1.611c-0.3889,-0.6668 -0.58334,-1.4074 -0.58334,-2.2222v-17.66674c0,-0.81482 0.19444,-1.55556 0.58334,-2.22222c0.38888,-0.66666 0.93518,-1.2037 1.63888,-1.61112l15.55558,-8.94444c0.7036,-0.40741 1.4444,-0.61111 2.2222,-0.61111c0.7778,0 1.5186,0.2037 2.2222,0.61111l15.5556,8.94444c0.7036,0.40742 1.25,0.94446 1.6388,1.61112c0.389,0.66666 0.5834,1.4074 0.5834,2.22222v17.66674c0,0.8148 -0.1944,1.5554 -0.5834,2.2222c-0.3888,0.6666 -0.9352,1.2036 -1.6388,1.611l-15.5556,8.9446c-0.7036,0.4074 -1.4444,0.611 -2.2222,0.611c-0.7778,0 -1.5186,-0.2036 -2.2222,-0.611zM230,273.8876v-17.83136l16,-9.05624l16,9v17.8876l-16,9.1124zM242.509,268.491c2.3274,2.3272 3.491,5.1636 3.491,8.509c0,-3.3454 1.1636,-6.1818 3.491,-8.509c2.3272,-2.3274 5.1636,-3.491 8.509,-3.491c-3.3454,0 -6.1818,-1.1636 -8.509,-3.491c-2.3274,-2.32718 -3.491,-5.16356 -3.491,-8.509c0,3.34544 -1.1636,6.18182 -3.491,8.509c-2.32718,2.3274 -5.16354,3.491 -8.509,3.491c3.34546,0 6.18182,1.1636 8.509,3.491z"/>
    </g>
    <g fill="#ffffff">
      <g fill-rule="evenodd">
        <path d="M407.459,198.144c-2.73,0 -5.035,-0.939 -6.912,-2.816c-1.792,-1.877 -2.688,-4.139 -2.688,-6.784c0,-2.645 0.896,-4.907 2.688,-6.784c1.877,-1.877 4.181,-2.816 6.912,-2.816c2.645,0 4.864,0.939 6.656,2.816c1.877,1.877 2.816,4.139 2.816,6.784c0,2.645 -0.939,4.907 -2.816,6.784c-1.792,1.877 -4.01,2.816 -6.656,2.816zM400.291,272v-62.72h14.208v62.72zM551.67,180.352h-14.208v91.648h13.44v-8.064h0.768c1.707,2.731 4.309,5.12 7.808,7.168c3.499,1.963 7.68,2.944 12.544,2.944c4.011,0 7.808,-0.811 11.392,-2.432c3.63723,-1.68338 6.90119,-4.07695 9.6,-7.04c2.731,-2.987 4.907,-6.485 6.528,-10.496c1.621,-4.096 2.432,-8.576 2.432,-13.44c0,-4.864 -0.811,-9.301 -2.432,-13.312c-1.621,-4.096 -3.797,-7.637 -6.528,-10.624c-2.68086,-2.95062 -5.95143,-5.30542 -9.6,-6.912c-3.584,-1.707 -7.381,-2.56 -11.392,-2.56c-4.864,0 -9.045,1.024 -12.544,3.072c-3.499,1.963 -6.101,4.31 -7.808,7.04h-0.768l0.768,-8.704zM576.246,259.456c-2.18508,0.93192 -4.53649,1.41092 -6.912,1.408c-2.475,0 -4.821,-0.469 -7.04,-1.408c-2.20191,-0.9274 -4.20189,-2.27521 -5.888,-3.968c-1.621,-1.707 -2.944,-3.797 -3.968,-6.272c-1.024,-2.56 -1.536,-5.419 -1.536,-8.576c0,-3.157 0.512,-5.973 1.536,-8.448c1.024,-2.56 2.347,-4.693 3.968,-6.4c1.68611,-1.69279 3.68609,-3.0406 5.888,-3.968c2.219,-0.939 4.565,-1.408 7.04,-1.408c2.389,0 4.693,0.47 6.912,1.408c2.304,0.939 4.267,2.304 5.888,4.096c1.707,1.707 3.072,3.797 4.096,6.272c1.024,2.475 1.536,5.29 1.536,8.448c0,3.157 -0.512,5.973 -1.536,8.448c-1.024,2.475 -2.389,4.608 -4.096,6.4c-1.621,1.707 -3.584,3.029 -5.888,3.968zM649.832,264.32h-0.768c-1.877,2.475 -4.309,4.736 -7.296,6.784c-2.987,1.963 -6.784,2.944 -11.392,2.944c-3.328,0 -6.443,-0.555 -9.344,-1.664c-2.901,-1.024 -5.419,-2.475 -7.552,-4.352c-2.10753,-1.92887 -3.84298,-4.22833 -5.12,-6.784c-1.195,-2.645 -1.792,-5.547 -1.792,-8.704c0,-3.328 0.64,-6.315 1.92,-8.96c1.365,-2.645 3.2,-4.864 5.504,-6.656c2.389,-1.792 5.205,-3.157 8.448,-4.096c3.243,-1.024 6.741,-1.536 10.496,-1.536c4.181,0 7.68,0.427 10.496,1.28c2.816,0.768 4.949,1.493 6.4,2.176v-2.432c0,-1.877 -0.427,-3.627 -1.28,-5.248c-0.76205,-1.6142 -1.90398,-3.01965 -3.328,-4.096c-1.365,-1.195 -2.944,-2.09 -4.736,-2.688c-1.79862,-0.68394 -3.70775,-1.03105 -5.632,-1.024c-3.157,0 -6.016,0.64 -8.576,1.92c-2.475,1.195 -4.693,3.157 -6.656,5.888l-11.264,-7.424c2.987,-4.096 6.699,-7.168 11.136,-9.216c4.437,-2.133 9.472,-3.2 15.104,-3.2c9.301,0 16.469,2.304 21.504,6.912c5.12,4.608 7.68,11.179 7.68,19.712v38.144h-13.952zM649.832,245.888c-1.877,-1.11 -3.968,-2.005 -6.272,-2.688c-2.304,-0.683 -4.949,-1.024 -7.936,-1.024c-4.437,0 -7.979,1.024 -10.624,3.072c-2.645,2.048 -3.968,4.523 -3.968,7.424c0,1.536 0.341,2.901 1.024,4.096c0.68716,1.11431 1.5519,2.10876 2.56,2.944c1.11359,0.85522 2.37053,1.50536 3.712,1.92c1.451,0.427 2.901,0.64 4.352,0.64c2.304,0 4.48,-0.427 6.528,-1.28c2.133,-0.939 3.968,-2.133 5.504,-3.584c1.52788,-1.52458 2.78336,-3.29957 3.712,-5.248c0.93758,-1.9573 1.41899,-4.10176 1.408,-6.272zM687.407,272.512c3.072,1.024 6.528,1.536 10.368,1.536c3.84,0 7.339,-0.555 10.496,-1.664c3.243,-1.024 6.016,-2.475 8.32,-4.352c2.304,-1.877 4.053,-4.011 5.248,-6.4c1.27252,-2.35902 1.93268,-4.99968 1.92,-7.68c0,-4.437 -1.536,-8.277 -4.608,-11.52c-2.987,-3.328 -7.723,-5.803 -14.208,-7.424l-9.6,-2.432c-3.072,-0.768 -5.376,-1.621 -6.912,-2.56c-1.451,-1.024 -2.176,-2.39 -2.176,-4.096c0,-1.024 0.299,-1.963 0.896,-2.816c0.66528,-0.8387 1.49232,-1.53515 2.432,-2.048c1.03405,-0.60126 2.15755,-1.03338 3.328,-1.28c1.28,-0.341 2.517,-0.512 3.712,-0.512c2.645,0 5.248,0.64 7.808,1.92c2.56,1.195 4.437,3.157 5.632,5.888l12.544,-5.248c-1.024,-2.475 -2.432,-4.608 -4.224,-6.4c-1.68541,-1.86066 -3.67682,-3.41915 -5.888,-4.608c-2.219,-1.195 -4.651,-2.09 -7.296,-2.688c-2.56,-0.597 -5.248,-0.896 -8.064,-0.896c-3.413,0 -6.656,0.427 -9.728,1.28c-2.987,0.853 -5.632,2.09 -7.936,3.712c-2.304,1.621 -4.139,3.627 -5.504,6.016c-1.28,2.39 -1.92,5.12 -1.92,8.192c0,2.73 0.512,5.12 1.536,7.168c1.09328,1.94362 2.52356,3.67729 4.224,5.12c1.69637,1.35883 3.54312,2.51843 5.504,3.456c2.048,0.853 4.053,1.493 6.016,1.92l8.96,2.176c4.267,1.024 7.168,2.219 8.704,3.584c1.536,1.28 2.304,2.816 2.304,4.608c0,1.792 -1.024,3.413 -3.072,4.864c-2.048,1.451 -4.864,2.176 -8.448,2.176c-3.157,0 -6.101,-0.853 -8.832,-2.56c-2.731,-1.792 -4.821,-4.523 -6.272,-8.192l-12.8,5.376c0.853,2.304 2.048,4.523 3.584,6.656c1.621,2.133 3.584,4.053 5.888,5.76c2.304,1.621 4.992,2.944 8.064,3.968zM778.88,269.184c4.864,-3.243 8.619,-7.296 11.264,-12.16l-12.16,-6.016c-1.707,2.901 -3.883,5.333 -6.528,7.296c-2.645,1.963 -6.016,2.944 -10.112,2.944c-2.048,0 -4.139,-0.341 -6.272,-1.024c-2.14541,-0.6893 -4.14258,-1.77472 -5.888,-3.2c-1.707,-1.451 -3.157,-3.285 -4.352,-5.504c-1.195,-2.219 -1.92,-4.821 -2.176,-7.808h48.256c0,-0.341 0.043,-0.683 0.128,-1.024c0,-0.341 0.043,-0.725 0.128,-1.152v-1.152c0,-4.864 -0.725,-9.344 -2.176,-13.44c-1.365,-4.096 -3.371,-7.595 -6.016,-10.496c-2.645,-2.901 -5.888,-5.163 -9.728,-6.784c-3.755,-1.621 -8.064,-2.432 -12.928,-2.432c-4.779,0 -9.131,0.896 -13.056,2.688c-3.925,1.792 -7.296,4.224 -10.112,7.296c-2.731,2.987 -4.864,6.528 -6.4,10.624c-1.536,4.01 -2.304,8.277 -2.304,12.8c0,4.864 0.811,9.344 2.432,13.44c1.621,4.011 3.883,7.509 6.784,10.496c2.901,2.987 6.315,5.333 10.24,7.04c4.011,1.621 8.363,2.432 13.056,2.432c7.083,0 13.056,-1.621 17.92,-4.864zM775.68,228.608c0.683,1.536 1.109,2.944 1.28,4.224h-33.408c1.024,-4.096 2.987,-7.339 5.888,-9.728c2.987,-2.475 6.528,-3.712 10.624,-3.712c2.987,0 5.504,0.47 7.552,1.408c2.133,0.939 3.84,2.09 5.12,3.456c1.365,1.28 2.347,2.73 2.944,4.352zM528.259,257.024c-2.645,4.864 -6.4,8.917 -11.264,12.16c-4.864,3.243 -10.837,4.864 -17.92,4.864c-4.693,0 -9.045,-0.811 -13.056,-2.432c-3.925,-1.707 -7.339,-4.053 -10.24,-7.04c-2.901,-2.987 -5.163,-6.485 -6.784,-10.496c-1.621,-4.096 -2.432,-8.576 -2.432,-13.44c0,-4.523 0.768,-8.79 2.304,-12.8c1.536,-4.096 3.669,-7.637 6.4,-10.624c2.816,-3.072 6.187,-5.504 10.112,-7.296c3.925,-1.792 8.277,-2.688 13.056,-2.688c4.864,0 9.173,0.81 12.928,2.432c3.84,1.621 7.083,3.883 9.728,6.784c2.645,2.901 4.651,6.4 6.016,10.496c1.451,4.096 2.176,8.576 2.176,13.44v1.152c-0.07999,0.37893 -0.12286,0.76475 -0.128,1.152c-0.08436,0.33482 -0.12735,0.67872 -0.128,1.024h-48.256c0.256,2.987 0.981,5.589 2.176,7.808c1.195,2.219 2.645,4.053 4.352,5.504c1.74542,1.42528 3.74259,2.5107 5.888,3.2c2.133,0.683 4.224,1.024 6.272,1.024c4.096,0 7.467,-0.981 10.112,-2.944c2.645,-1.963 4.821,-4.395 6.528,-7.296zM515.075,232.832c-0.171,-1.28 -0.597,-2.688 -1.28,-4.224c-0.597,-1.621 -1.579,-3.072 -2.944,-4.352c-1.28,-1.365 -2.987,-2.517 -5.12,-3.456c-2.048,-0.939 -4.565,-1.408 -7.552,-1.408c-4.096,0 -7.637,1.237 -10.624,3.712c-2.901,2.39 -4.864,5.632 -5.888,9.728zM440.772,209.28h-13.44v62.72h14.208v-32.64c0,-2.475 0.384,-4.821 1.152,-7.04c0.853,-2.219 2.005,-4.139 3.456,-5.76c1.451,-1.621 3.115,-2.901 4.992,-3.84c1.963,-0.939 4.096,-1.408 6.4,-1.408c1.621,0 2.987,0.128 4.096,0.384c1.195,0.17 2.261,0.47 3.2,0.896l4.096,-13.184c-1.195,-0.597 -2.517,-1.067 -3.968,-1.408c-1.451,-0.341 -3.2,-0.512 -5.248,-0.512c-1.707,0 -3.499,0.299 -5.376,0.896c-1.792,0.512 -3.541,1.28 -5.248,2.304c-1.621,0.939 -3.115,2.133 -4.48,3.584c-1.25158,1.32382 -2.28814,2.83546 -3.072,4.48h-0.768zM391.808,180.352h-55.808v91.648h14.464v-38.016h37.248v-13.568h-37.248v-26.24h41.344z"/>
      </g>
      <path d="" fill-rule="nonzero"/>
      <path d="M917.794,229.89v0c0,12.8 -3.79667,22.99667 -11.39,30.59v0c-8.62,9.04667 -19.84333,13.57 -33.67,13.57v0c-13.22667,0 -24.47,-4.58667 -33.73,-13.76c-9.25333,-9.17333 -13.88,-20.54333 -13.88,-34.11c0,-13.57333 4.62667,-24.94667 13.88,-34.12c9.26,-9.17333 20.50333,-13.76 33.73,-13.76v0c6.57333,0 12.84667,1.28 18.82,3.84c5.97333,2.56 10.75,5.97333 14.33,10.24v0l-8.06,8.07c-6.06,-7.25333 -14.42333,-10.88 -25.09,-10.88v0c-9.64,0 -17.98,3.39 -25.02,10.17c-7.04,6.78667 -10.56,15.6 -10.56,26.44c0,10.83333 3.52,19.64333 10.56,26.43c7.04,6.78 15.38,10.17 25.02,10.17v0c10.24,0 18.77333,-3.41333 25.6,-10.24v0c4.44,-4.43333 7,-10.62 7.68,-18.56v0h-33.28v-11h44.42c0.42667,2.38667 0.64,4.69 0.64,6.91z" fill-rule="nonzero"/>
      <path d="M957.854,274.05v0c-9.47333,0 -17.17333,-3.15667 -23.1,-9.47c-5.93333,-6.32 -8.9,-14.3 -8.9,-23.94v0c0,-9.13333 2.88,-16.98333 8.64,-23.55c5.76,-6.57333 13.12,-9.86 22.08,-9.86v0c9.3,0 16.74667,3.03 22.34,9.09c5.58667,6.06 8.38,14.16667 8.38,24.32v0l-0.13,2.18h-49.53c0.34,6.31333 2.45,11.30333 6.33,14.97c3.88667,3.67333 8.43333,5.51 13.64,5.51v0c8.44667,0 14.16333,-3.58667 17.15,-10.76v0l10.49,4.36c-2.04667,4.86 -5.41667,8.93333 -10.11,12.22c-4.69333,3.28667 -10.45333,4.93 -17.28,4.93zM938.404,233.09h36.35c-0.26,-3.58667 -1.90333,-7 -4.93,-10.24c-3.02667,-3.24667 -7.52667,-4.87 -13.5,-4.87v0c-4.35333,0 -8.13,1.36667 -11.33,4.1c-3.2,2.73333 -5.39667,6.40333 -6.59,11.01z" fill-rule="nonzero"/>
      <path d="M996.764,209.28h11.27v8.7h0.51c1.70667,-2.98667 4.39333,-5.52333 8.06,-7.61c3.67333,-2.09333 7.6,-3.14 11.78,-3.14v0c7.76667,0 13.69667,2.39 17.79,7.17c4.1,4.78 6.15,11.18 6.15,19.2v0v38.4h-11.78v-36.61c0,-11.60667 -5.16333,-17.41 -15.49,-17.41v0c-4.86,0 -8.82667,1.94333 -11.9,5.83c-3.07333,3.88 -4.61,8.38 -4.61,13.5v0v34.69h-11.78z" fill-rule="nonzero"/>
      <path d="M1064.864,180.35h11.78v56.45l27.13,-27.52h15.11v0.51l-24.45,24.45l25.6,37.25v0.51h-14.21l-19.71,-29.57l-9.47,9.47v20.1h-11.78z" fill-rule="nonzero"/>
      <path d="M1139.484,193.54c-1.62,1.62 -3.58,2.43 -5.88,2.43c-2.30667,0 -4.27,-0.81 -5.89,-2.43c-1.62,-1.62667 -2.43,-3.59 -2.43,-5.89c0,-2.30667 0.81,-4.27 2.43,-5.89c1.62,-1.62 3.58333,-2.43 5.89,-2.43c2.3,0 4.26,0.81 5.88,2.43c1.62667,1.62 2.44,3.58333 2.44,5.89c0,2.3 -0.81333,4.26333 -2.44,5.89zM1139.484,209.28v62.72h-11.77v-62.72z" fill-rule="nonzero"/>
      <path d="M1179.424,273.02v0c-6.57333,0 -11.58667,-1.74667 -15.04,-5.24c-3.45333,-3.5 -5.18,-8.45 -5.18,-14.85v0v-32.9h-11.01v-10.75h11.01v-19.2h11.77v19.2h15.36v10.75h-15.36v32c0,6.82667 2.81667,10.24 8.45,10.24v0c2.13333,0 3.92667,-0.34 5.38,-1.02v0l4.09,10.11c-2.56,1.10667 -5.71667,1.66 -9.47,1.66z" fill-rule="nonzero"/>
    </g>
  </g>
  <defs>
    <filter id="dropshadow">
      <feColorMatrix type="matrix" values="0 0 0 0 0  0 0 0 0 0  0 0 0 0 0  0 0 0 .3 0"/>
      <feOffset dx="0" dy="2"/>
      <feGaussianBlur stdDeviation="2"/>
      <feComposite in="SourceGraphic"/>
    </filter>
  </defs>
</svg>
