<?xml version="1.0" encoding="UTF-8"?>
<svg xmlns="http://www.w3.org/2000/svg" version="1.1" viewBox="0 0 192 192">
  <defs>
    <style>
      .cls-1 {
        fill: none;
      }

      .cls-2 {
        fill: #5f6368;
      }

      .cls-2, .cls-3 {
        fill-rule: evenodd;
      }

      .cls-4 {
        fill: #fff;
      }

      .cls-5 {
        fill: #ffc400;
      }

      .cls-6 {
        fill: #dd2c00;
      }

      .cls-3 {
        fill: #ff9100;
      }
    </style>
  </defs>
  <!-- Generator: Adobe Illustrator 28.6.0, SVG Export Plug-In . SVG Version: 1.2.0 Build 709)  -->
  <g>
    <g id="Layer_1">
      <g>
        <rect class="cls-1" x="-17.8" y="-6.8" width="211.5" height="211.5"/>
        <g>
          <path class="cls-3" d="M105.7,181.4h0c-10.5,4.8-21.9,7.2-33.5,6.7-8.6-.3-17-2.1-25-5.3l-24.3-72.7,16.8-32.6h62.1s3.9,103.9,3.9,103.9Z"/>
          <path class="cls-5" d="M73.1,160.9c-21.5-19.9-34.6-48.7-33.5-80.3,0-1,0-2.1.2-3.1-3.9-1-8-1.6-12-1.8-5.8-.2-11.5.5-17.1,2.1-5.9,10.4-9.2,22-9.6,34-1.1,31.9,18.2,59.8,46.2,71.1,10.7-4.5,19.7-12.1,25.9-22Z"/>
          <path class="cls-6" d="M78.7,2.8c-14.1,11.3-25.2,26.2-32,43.3-3.9,10.1-6.3,20.7-7,31.4,24.7,6.4,42.6,29.3,41.7,55.9-.3,9.7-3.2,19.2-8.4,27.5,9.5,8.8,20.6,15.8,32.7,20.5,24.5-11.3,41.8-35.7,42.8-64.5.7-18.7-6.5-35.3-16.6-49.3C121.2,52.8,78.7,2.8,78.7,2.8h0Z"/>
        </g>
        <circle class="cls-4" cx="147.5" cy="144.2" r="44.1"/>
        <path class="cls-2" d="M127.9,158.1c-.8-.4-1.4-1-1.8-1.8-.4-.7-.6-1.6-.6-2.4v-19.5c0-.9.2-1.7.6-2.4.4-.7,1-1.3,1.8-1.8l17.1-9.9c.8-.4,1.6-.7,2.4-.7s1.7.2,2.4.7l17.1,9.9c.8.4,1.4,1,1.8,1.8.4.7.6,1.6.6,2.4v19.5c0,.9-.2,1.7-.6,2.4-.4.7-1,1.3-1.8,1.8l-17.1,9.9c-.8.4-1.6.7-2.4.7s-1.7-.2-2.4-.7l-17.1-9.9ZM129.9,154v-19.6l17.6-10,17.6,9.9v19.7l-17.6,10-17.6-10ZM143.6,148c2.6,2.6,3.8,5.7,3.8,9.4,0-3.7,1.3-6.8,3.8-9.4,2.6-2.6,5.7-3.8,9.4-3.8-3.7,0-6.8-1.3-9.4-3.8-2.6-2.6-3.8-5.7-3.8-9.4,0,3.7-1.3,6.8-3.8,9.4-2.6,2.6-5.7,3.8-9.4,3.8,3.7,0,6.8,1.3,9.4,3.8Z"/>
      </g>
    </g>
  </g>
</svg>